<svg xmlns="http://www.w3.org/2000/svg" version="1.1" xmlns:xlink="http://www.w3.org/1999/xlink" xmlns:svgjs="http://svgjs.dev/svgjs" width="1000" height="1000" viewBox="0 0 1000 1000"><rect width="1000" height="1000" fill="#ffffff"></rect><g transform="matrix(0.7,0,0,0.7,149.57576600931833,464.3743284119905)"><svg viewBox="0 0 396 41" data-background-color="#ffffff" preserveAspectRatio="xMidYMid meet" height="103" width="1000" xmlns="http://www.w3.org/2000/svg" xmlns:xlink="http://www.w3.org/1999/xlink"><g id="tight-bounds" transform="matrix(1,0,0,1,0.23999522901419823,-0.24129632304592974)"><svg viewBox="0 0 395.52 41.482592646091845" height="41.482592646091845" width="395.52"><g><svg viewBox="0 0 455.9658014125152 47.822217841181676" height="41.482592646091845" width="395.52"><g transform="matrix(1,0,0,1,60.44580141251523,6.609293493245804)"><svg viewBox="0 0 395.52 34.60363085469007" height="34.60363085469007" width="395.52"><g><svg viewBox="0 0 395.52 34.60363085469007" height="34.60363085469007" width="395.52"><g><svg viewBox="0 0 395.52 34.60363085469007" height="34.60363085469007" width="395.52"><g transform="matrix(1,0,0,1,0,0)"><svg width="395.52" viewBox="3.5 -34.29999923706055 395.0199890136719 34.64999771118164" height="34.60363085469007" data-palette-color="#f59e0b"><g  className="undefined-text-0" data-fill-palette-color="primary" id="text-0"><path d="M9.95-28.4L9.95-5.25 14.4-5.25Q19.7-5.25 22.45-8.53 25.2-11.8 25.2-17.3L25.2-17.3Q25.2-22.15 22.28-25.28 19.35-28.4 14.3-28.4L14.3-28.4 9.95-28.4ZM3.5 0L3.5-33.7 14.5-33.7Q22.05-33.7 26.85-29.05 31.65-24.4 31.65-17.3L31.65-17.3Q31.65-9.55 27-4.78 22.35 0 14.5 0L14.5 0 3.5 0ZM43.6-14.3L43.6-5.15 57.35-5.15 57.35 0 37.25 0 37.25-33.7 57.15-33.7 57.15-28.55 43.6-28.55 43.6-19.4 55.65-19.4 55.65-14.3 43.6-14.3ZM84.65-33.7L91.4-33.7 79.9 0 72.7 0 61.4-33.7 68.25-33.7 72.4-20.3Q73.65-16.3 74.65-12.65 75.65-9 76.05-7.35L76.05-7.35 76.4-5.7Q77.6-11.3 80.45-20.3L80.45-20.3 84.65-33.7ZM102.54-14.3L102.54-5.15 116.29-5.15 116.29 0 96.19 0 96.19-33.7 116.09-33.7 116.09-28.55 102.54-28.55 102.54-19.4 114.59-19.4 114.59-14.3 102.54-14.3ZM128.89-33.7L128.89-5.6 142.04-5.6 142.04 0 122.59 0 122.59-33.7 128.89-33.7ZM145.44-16.95L145.44-16.95Q145.44-24.8 149.76-29.55 154.09-34.3 161.34-34.3L161.34-34.3Q168.69-34.3 172.99-29.58 177.29-24.85 177.29-16.95L177.29-16.95Q177.29-9.15 172.96-4.4 168.64 0.35 161.39 0.35 154.14 0.35 149.79-4.4 145.44-9.15 145.44-16.95ZM152.19-16.95L152.19-16.95Q152.19-11.65 154.69-8.55 157.19-5.45 161.39-5.45L161.39-5.45Q165.64-5.45 168.09-8.53 170.54-11.6 170.54-16.95 170.54-22.3 168.09-25.4 165.64-28.5 161.34-28.5L161.34-28.5Q157.09-28.5 154.64-25.4 152.19-22.3 152.19-16.95ZM189.24-28.55L189.24-16.55 192.79-16.55Q196.24-16.55 197.94-18.2 199.64-19.85 199.64-22.65L199.64-22.65Q199.64-25.4 197.94-26.98 196.24-28.55 192.94-28.55L192.94-28.55 189.24-28.55ZM182.94 0L182.94-33.7 193.49-33.7Q199.19-33.7 202.61-30.6 206.04-27.5 206.04-22.65L206.04-22.65Q206.04-17.5 202.51-14.48 198.99-11.45 193.64-11.45L193.64-11.45 189.24-11.45 189.24 0 182.94 0ZM217.08-14.3L217.08-5.15 230.83-5.15 230.83 0 210.73 0 210.73-33.7 230.63-33.7 230.63-28.55 217.08-28.55 217.08-19.4 229.13-19.4 229.13-14.3 217.08-14.3ZM247.53-28.5L243.43-28.5 243.43-17.5 247.63-17.5Q250.53-17.5 251.98-18.98 253.43-20.45 253.43-23.1L253.43-23.1Q253.43-25.7 251.91-27.1 250.38-28.5 247.53-28.5L247.53-28.5ZM262.08 0L254.53 0 246.88-12.3 243.43-12.3 243.43 0 237.13 0 237.13-33.7 247.53-33.7Q253.28-33.7 256.56-30.8 259.83-27.9 259.83-23.05L259.83-23.05Q259.78-19.45 258.08-16.98 256.38-14.5 253.43-13.3L253.43-13.3 262.08 0Z" fill="#f59e0b" data-fill-palette-color="primary"></path><path d="M280.23-21.25L283.63-33.2 288.73-33.2 292.18-21.25 296.18-6.75Q297.43-13.7 299.28-21.3L299.28-21.3 302.33-33.7 308.73-33.7 300.13 0 292.83 0 289.78-10.65Q288.53-14.9 287.66-18.15 286.78-21.4 286.48-22.5L286.48-22.5 286.23-23.65Q285.53-20.15 282.73-10.65L282.73-10.65 279.58 0 272.33 0 263.33-33.7 269.98-33.7 273.13-21.25Q273.93-17.9 274.73-14.3 275.53-10.7 275.93-8.8L275.93-8.8 276.33-6.85Q277.93-13.15 280.23-21.25L280.23-21.25ZM319.83-14.3L319.83-5.15 333.58-5.15 333.58 0 313.48 0 313.48-33.7 333.38-33.7 333.38-28.55 319.83-28.55 319.83-19.4 331.88-19.4 331.88-14.3 319.83-14.3ZM348.88-14.25L348.43-12.8 357.93-12.8 357.48-14.3Q355.78-19.7 354.7-23.38 353.63-27.05 353.38-28L353.38-28 353.18-29Q352.73-26.5 348.88-14.25L348.88-14.25ZM368.73 0L361.93 0 359.53-7.65 346.78-7.65 344.38 0 337.78 0 349.18-33.7 357.33-33.7 368.73 0ZM383.97-28.5L379.87-28.5 379.87-17.5 384.07-17.5Q386.97-17.5 388.42-18.98 389.87-20.45 389.87-23.1L389.87-23.1Q389.87-25.7 388.35-27.1 386.82-28.5 383.97-28.5L383.97-28.5ZM398.52 0L390.97 0 383.32-12.3 379.87-12.3 379.87 0 373.57 0 373.57-33.7 383.97-33.7Q389.72-33.7 393-30.8 396.27-27.9 396.27-23.05L396.27-23.05Q396.22-19.45 394.52-16.98 392.82-14.5 389.87-13.3L389.87-13.3 398.52 0Z" fill="#1c4b82" data-fill-palette-color="secondary"></path></g></svg></g></svg></g></svg></g></svg></g><g><svg viewBox="0 0 52.27671465486342 47.822217841181676" height="47.822217841181676" width="52.27671465486342"><g><svg xmlns="http://www.w3.org/2000/svg" xmlns:xlink="http://www.w3.org/1999/xlink" version="1.1" x="0" y="0" viewBox="0 4.770999908447266 100 91.47900390625" enable-background="new 0 0 100 100" xml:space="preserve" height="47.822217841181676" width="52.27671465486342"  className="icon-icon-0" data-fill-palette-color="accent" id="icon-0"><g fill="#f59e0b" data-fill-palette-color="accent"><polygon fill="#f59e0b" points="40.353,4.771 37.621,10.525 44.786,16.319 49.231,11.588 49.09,11.438 49.093,11.437  " data-fill-palette-color="accent"></polygon><polygon fill="#f59e0b" points="55.049,16.319 62.214,10.525 59.48,4.771 50.578,11.562  " data-fill-palette-color="accent"></polygon><polygon fill="#f59e0b" points="63.454,10.808 54.955,17.681 50.674,13.124 50.674,96.25 77.986,96.25 77.609,36.051    95.255,41.273 100,19.591 62.573,8.953  " data-fill-palette-color="accent"></polygon><path fill="#f59e0b" d="M44.878 17.681l-8.499-6.873 0.916-1.929L0 19.205l5.123 22.261 17.267-5.667V96.25h26.841V13.048L44.878 17.681zM44.926 86.667c-0.828 0-1.5-0.671-1.5-1.5s0.672-1.5 1.5-1.5 1.5 0.671 1.5 1.5S45.754 86.667 44.926 86.667zM44.926 74.967c-0.828 0-1.5-0.672-1.5-1.5s0.672-1.5 1.5-1.5 1.5 0.672 1.5 1.5S45.754 74.967 44.926 74.967zM44.926 63.267c-0.828 0-1.5-0.672-1.5-1.5s0.672-1.5 1.5-1.5 1.5 0.672 1.5 1.5S45.754 63.267 44.926 63.267zM44.926 51.566c-0.828 0-1.5-0.671-1.5-1.5 0-0.829 0.672-1.5 1.5-1.5s1.5 0.671 1.5 1.5C46.426 50.895 45.754 51.566 44.926 51.566zM44.926 39.867c-0.828 0-1.5-0.671-1.5-1.5s0.672-1.5 1.5-1.5 1.5 0.671 1.5 1.5S45.754 39.867 44.926 39.867zM44.926 28.167c-0.829 0-1.5-0.671-1.5-1.5s0.671-1.5 1.5-1.5 1.5 0.671 1.5 1.5S45.754 28.167 44.926 28.167z" data-fill-palette-color="accent"></path></g></svg></g></svg></g></svg></g><defs></defs></svg><rect width="395.52" height="41.482592646091845" fill="none" stroke="none" visibility="hidden"></rect></g></svg></g></svg>